<svg xmlns="http://www.w3.org/2000/svg" width="1964" height="920" viewBox="0 0 1964 920"><rect x="0" y="0" width="1964" height="920" rx="0" fill="#252e33" stroke="none"/><g transform="translate(0,0)" font-family="Cascadia Mono, Microsoft JhengHei, sans-serif"><rect x="0" y="0" width="380" height="920" rx="0" fill="#0b0f12" stroke="none"/><rect x="0" y="0" width="380" height="3" rx="0" fill="#c5ee65" stroke="none"/><text x="22" y="33" font-size="11" fill="#8d9999" font-weight="400">CUEFOX QF / EDITOR</text><text x="331" y="35" font-size="20" fill="#c5ee65" font-weight="700">01</text><text x="22" y="77" font-size="25" fill="#e8ece8" font-weight="700">元件參數</text><text x="22" y="102" font-size="12" fill="#8d9999" font-weight="400">Component properties</text><text x="22" y="133" font-size="10" fill="#c5ee65" font-weight="400">SIMULATED STATE · 模擬編輯狀態</text><rect x="22" y="153" width="336" height="230" rx="0" fill="#10171b" stroke="#39434a"/><path d="M38 173V360" stroke="#1d282d"/><path d="M62 173V360" stroke="#1d282d"/><path d="M86 173V360" stroke="#1d282d"/><path d="M110 173V360" stroke="#1d282d"/><path d="M134 173V360" stroke="#1d282d"/><path d="M158 173V360" stroke="#1d282d"/><path d="M182 173V360" stroke="#1d282d"/><path d="M206 173V360" stroke="#1d282d"/><path d="M230 173V360" stroke="#1d282d"/><path d="M254 173V360" stroke="#1d282d"/><path d="M278 173V360" stroke="#1d282d"/><path d="M302 173V360" stroke="#1d282d"/><path d="M326 173V360" stroke="#1d282d"/><path d="M350 173V360" stroke="#1d282d"/><path d="M30 179H350" stroke="#1d282d"/><path d="M30 203H350" stroke="#1d282d"/><path d="M30 227H350" stroke="#1d282d"/><path d="M30 251H350" stroke="#1d282d"/><path d="M30 275H350" stroke="#1d282d"/><path d="M30 299H350" stroke="#1d282d"/><path d="M30 323H350" stroke="#1d282d"/><path d="M30 347H350" stroke="#1d282d"/><text x="34" y="173" font-size="9" fill="#8d9999" font-weight="400">LIVE MONITOR / DEMO</text><rect x="43" y="233" width="295" height="97" rx="0" fill="#1a202c" stroke="#39434a"/><circle cx="79" cy="280" r="25" fill="#11171c" stroke="#c5ee65" stroke-width="2"/><circle cx="79" cy="280" r="8" fill="#39434a"/><text x="115" y="258" font-size="14" fill="#c5ee65" font-weight="700">GLASS HORIZON</text><text x="115" y="278" font-size="11" fill="#8d9999" font-weight="400">04:32 / 58:20</text><text x="115" y="307" font-size="11" fill="#e8ece8" font-weight="400">YT   ◀   ▶   LIST</text><rect x="109" y="239" width="222" height="31" rx="0" fill="none" stroke="#c5ee65"/><rect x="107" y="237" width="5" height="5" rx="0" fill="#c5ee65" stroke="none"/><rect x="107" y="268" width="5" height="5" rx="0" fill="#c5ee65" stroke="none"/><rect x="329" y="237" width="5" height="5" rx="0" fill="#c5ee65" stroke="none"/><rect x="329" y="268" width="5" height="5" rx="0" fill="#c5ee65" stroke="none"/><text x="22" y="415" font-size="12" fill="#c5ee65" font-weight="700">TRACK TITLE</text><path d="M22 428H358" stroke="#39434a"/><text x="22" y="454" font-size="10" fill="#8d9999" font-weight="400">BACKGROUND</text><rect x="22" y="462" width="336" height="29" rx="0" fill="#192126" stroke="#39434a"/><text x="33" y="482" font-size="12" fill="#e8ece8" font-weight="400">#1A202C</text><text x="22" y="505" font-size="10" fill="#8d9999" font-weight="400">OPACITY</text><rect x="22" y="513" width="336" height="29" rx="0" fill="#192126" stroke="#39434a"/><text x="33" y="533" font-size="12" fill="#e8ece8" font-weight="400">85%</text><text x="22" y="556" font-size="10" fill="#8d9999" font-weight="400">SIZE</text><rect x="22" y="564" width="336" height="29" rx="0" fill="#192126" stroke="#39434a"/><text x="33" y="584" font-size="12" fill="#e8ece8" font-weight="400">33.75%</text><text x="22" y="607" font-size="10" fill="#8d9999" font-weight="400">TEXT SIZE</text><rect x="22" y="615" width="336" height="29" rx="0" fill="#192126" stroke="#39434a"/><text x="33" y="635" font-size="12" fill="#e8ece8" font-weight="400">18 px</text><text x="22" y="658" font-size="10" fill="#8d9999" font-weight="400">CORNER LEVEL</text><rect x="22" y="666" width="336" height="29" rx="0" fill="#192126" stroke="#39434a"/><text x="33" y="686" font-size="12" fill="#e8ece8" font-weight="400">4 / 10</text><text x="22" y="731" font-size="12" fill="#c5ee65" font-weight="400">✓ 邊框 ON</text><text x="22" y="755" font-size="12" fill="#c5ee65" font-weight="400">✓ 圓角 ON</text><text x="22" y="779" font-size="12" fill="#c5ee65" font-weight="400">✓ 背景模糊 OFF</text><path d="M22 792H358" stroke="#39434a"/><text x="22" y="843" font-size="13" fill="#e8ece8" font-weight="400">同一元件，分開調整表面與文字。</text><text x="22" y="869" font-size="10" fill="#8d9999" font-weight="400">表面不透明度與文字不透明度可獨立設定。</text><text x="22" y="898" font-size="9" fill="#687777" font-weight="400">ILLUSTRATED UI · NOT A LIVE CAPTURE</text></g><g transform="translate(396,0)" font-family="Cascadia Mono, Microsoft JhengHei, sans-serif"><rect x="0" y="0" width="380" height="920" rx="0" fill="#0b0f12" stroke="none"/><rect x="0" y="0" width="380" height="3" rx="0" fill="#bda8fb" stroke="none"/><text x="22" y="33" font-size="11" fill="#8d9999" font-weight="400">CUEFOX QF / EDITOR</text><text x="331" y="35" font-size="20" fill="#bda8fb" font-weight="700">02</text><text x="22" y="77" font-size="25" fill="#e8ece8" font-weight="700">圖層與前後關係</text><text x="22" y="102" font-size="12" fill="#8d9999" font-weight="400">Layer order</text><text x="22" y="133" font-size="10" fill="#bda8fb" font-weight="400">SIMULATED STATE · 模擬編輯狀態</text><rect x="22" y="153" width="336" height="230" rx="0" fill="#10171b" stroke="#39434a"/><path d="M38 173V360" stroke="#1d282d"/><path d="M62 173V360" stroke="#1d282d"/><path d="M86 173V360" stroke="#1d282d"/><path d="M110 173V360" stroke="#1d282d"/><path d="M134 173V360" stroke="#1d282d"/><path d="M158 173V360" stroke="#1d282d"/><path d="M182 173V360" stroke="#1d282d"/><path d="M206 173V360" stroke="#1d282d"/><path d="M230 173V360" stroke="#1d282d"/><path d="M254 173V360" stroke="#1d282d"/><path d="M278 173V360" stroke="#1d282d"/><path d="M302 173V360" stroke="#1d282d"/><path d="M326 173V360" stroke="#1d282d"/><path d="M350 173V360" stroke="#1d282d"/><path d="M30 179H350" stroke="#1d282d"/><path d="M30 203H350" stroke="#1d282d"/><path d="M30 227H350" stroke="#1d282d"/><path d="M30 251H350" stroke="#1d282d"/><path d="M30 275H350" stroke="#1d282d"/><path d="M30 299H350" stroke="#1d282d"/><path d="M30 323H350" stroke="#1d282d"/><path d="M30 347H350" stroke="#1d282d"/><text x="34" y="173" font-size="9" fill="#8d9999" font-weight="400">LIVE MONITOR / DEMO</text><rect x="67" y="269" width="218" height="61" rx="0" fill="#263139" stroke="#8d9999"/><text x="81" y="306" font-size="12" fill="#cbd3d5" font-weight="400">04:32 / 58:20     Z 1</text><rect x="99" y="237" width="233" height="57" rx="0" fill="#1a202c" stroke="#bda8fb"/><text x="110" y="260" font-size="15" fill="#bda8fb" font-weight="700">GLASS HORIZON</text><text x="110" y="280" font-size="10" fill="#8d9999" font-weight="400">TRACK TITLE · Z 2</text><text x="22" y="415" font-size="12" fill="#bda8fb" font-weight="700">Z AXIS</text><path d="M22 428H358" stroke="#39434a"/><text x="22" y="454" font-size="10" fill="#8d9999" font-weight="400">ENABLE Z AXIS</text><rect x="22" y="462" width="336" height="29" rx="0" fill="#192126" stroke="#39434a"/><text x="33" y="482" font-size="12" fill="#e8ece8" font-weight="400">ON</text><text x="22" y="505" font-size="10" fill="#8d9999" font-weight="400">TRACK TITLE</text><rect x="22" y="513" width="336" height="29" rx="0" fill="#192126" stroke="#39434a"/><text x="33" y="533" font-size="12" fill="#e8ece8" font-weight="400">Z = 2</text><text x="22" y="556" font-size="10" fill="#8d9999" font-weight="400">TIME READOUT</text><rect x="22" y="564" width="336" height="29" rx="0" fill="#192126" stroke="#39434a"/><text x="33" y="584" font-size="12" fill="#e8ece8" font-weight="400">Z = 1</text><text x="22" y="607" font-size="10" fill="#8d9999" font-weight="400">PANEL BASE</text><rect x="22" y="615" width="336" height="29" rx="0" fill="#192126" stroke="#39434a"/><text x="33" y="635" font-size="12" fill="#e8ece8" font-weight="400">AUTO</text><text x="22" y="658" font-size="10" fill="#8d9999" font-weight="400">ALLOWED RANGE</text><rect x="22" y="666" width="336" height="29" rx="0" fill="#192126" stroke="#39434a"/><text x="33" y="686" font-size="12" fill="#e8ece8" font-weight="400">−99 … 99</text><text x="22" y="731" font-size="12" fill="#bda8fb" font-weight="400">✓ 保留元件位置</text><text x="22" y="755" font-size="12" fill="#bda8fb" font-weight="400">✓ 變更覆蓋順序</text><path d="M22 792H358" stroke="#39434a"/><text x="22" y="843" font-size="13" fill="#e8ece8" font-weight="400">讓標題置前，讓時間資訊留在後層。</text><text x="22" y="869" font-size="10" fill="#8d9999" font-weight="400">底座依內容包覆，並維持在元件下方。</text><text x="22" y="898" font-size="9" fill="#687777" font-weight="400">ILLUSTRATED UI · NOT A LIVE CAPTURE</text></g><g transform="translate(792,0)" font-family="Cascadia Mono, Microsoft JhengHei, sans-serif"><rect x="0" y="0" width="380" height="920" rx="0" fill="#0b0f12" stroke="none"/><rect x="0" y="0" width="380" height="3" rx="0" fill="#69cde5" stroke="none"/><text x="22" y="33" font-size="11" fill="#8d9999" font-weight="400">CUEFOX QF / EDITOR</text><text x="331" y="35" font-size="20" fill="#69cde5" font-weight="700">03</text><text x="22" y="77" font-size="25" fill="#e8ece8" font-weight="700">等比例打包縮放</text><text x="22" y="102" font-size="12" fill="#8d9999" font-weight="400">Proportional scaling</text><text x="22" y="133" font-size="10" fill="#69cde5" font-weight="400">SIMULATED STATE · 模擬編輯狀態</text><rect x="22" y="153" width="336" height="230" rx="0" fill="#10171b" stroke="#39434a"/><path d="M38 173V360" stroke="#1d282d"/><path d="M62 173V360" stroke="#1d282d"/><path d="M86 173V360" stroke="#1d282d"/><path d="M110 173V360" stroke="#1d282d"/><path d="M134 173V360" stroke="#1d282d"/><path d="M158 173V360" stroke="#1d282d"/><path d="M182 173V360" stroke="#1d282d"/><path d="M206 173V360" stroke="#1d282d"/><path d="M230 173V360" stroke="#1d282d"/><path d="M254 173V360" stroke="#1d282d"/><path d="M278 173V360" stroke="#1d282d"/><path d="M302 173V360" stroke="#1d282d"/><path d="M326 173V360" stroke="#1d282d"/><path d="M350 173V360" stroke="#1d282d"/><path d="M30 179H350" stroke="#1d282d"/><path d="M30 203H350" stroke="#1d282d"/><path d="M30 227H350" stroke="#1d282d"/><path d="M30 251H350" stroke="#1d282d"/><path d="M30 275H350" stroke="#1d282d"/><path d="M30 299H350" stroke="#1d282d"/><path d="M30 323H350" stroke="#1d282d"/><path d="M30 347H350" stroke="#1d282d"/><text x="34" y="173" font-size="9" fill="#8d9999" font-weight="400">LIVE MONITOR / DEMO</text><rect x="43" y="233" width="295" height="97" rx="0" fill="#1a202c" stroke="#39434a"/><circle cx="79" cy="280" r="25" fill="#11171c" stroke="#69cde5" stroke-width="2"/><circle cx="79" cy="280" r="8" fill="#39434a"/><text x="115" y="258" font-size="14" fill="#69cde5" font-weight="700">GLASS HORIZON</text><text x="115" y="278" font-size="11" fill="#8d9999" font-weight="400">04:32 / 58:20</text><text x="115" y="307" font-size="11" fill="#e8ece8" font-weight="400">YT   ◀   ▶   LIST</text><rect x="34" y="220" width="311" height="121" fill="none" stroke="#69cde5" stroke-dasharray="5 4"/><text x="240" y="211" font-size="12" fill="#69cde5" font-weight="400">× 1.10</text><text x="22" y="415" font-size="12" fill="#69cde5" font-weight="700">SCALE GROUP</text><path d="M22 428H358" stroke="#39434a"/><text x="22" y="454" font-size="10" fill="#8d9999" font-weight="400">CANVAS</text><rect x="22" y="462" width="336" height="29" rx="0" fill="#192126" stroke="#39434a"/><text x="33" y="482" font-size="12" fill="#e8ece8" font-weight="400">1280 × 720</text><text x="22" y="505" font-size="10" fill="#8d9999" font-weight="400">SIZE MODE</text><rect x="22" y="513" width="336" height="29" rx="0" fill="#192126" stroke="#39434a"/><text x="33" y="533" font-size="12" fill="#e8ece8" font-weight="400">REL · %</text><text x="22" y="556" font-size="10" fill="#8d9999" font-weight="400">SCOPE</text><rect x="22" y="564" width="336" height="29" rx="0" fill="#192126" stroke="#39434a"/><text x="33" y="584" font-size="12" fill="#e8ece8" font-weight="400">ALL</text><text x="22" y="607" font-size="10" fill="#8d9999" font-weight="400">SCALE</text><rect x="22" y="615" width="336" height="29" rx="0" fill="#192126" stroke="#39434a"/><text x="33" y="635" font-size="12" fill="#e8ece8" font-weight="400">110%</text><text x="22" y="658" font-size="10" fill="#8d9999" font-weight="400">AUTO ALIGN</text><rect x="22" y="666" width="336" height="29" rx="0" fill="#192126" stroke="#39434a"/><text x="33" y="686" font-size="12" fill="#e8ece8" font-weight="400">OFF AFTER SCALE</text><text x="22" y="731" font-size="12" fill="#69cde5" font-weight="400">✓ 共同中心縮放</text><text x="22" y="755" font-size="12" fill="#69cde5" font-weight="400">✓ 分離控制鈕一起調整</text><rect x="22" y="779" width="336" height="34" rx="0" fill="#69cde5" stroke="none"/><text x="83" y="802" font-size="13" fill="#0b0f12" font-weight="700">打包縮放 / SCALE %</text><text x="22" y="843" font-size="13" fill="#e8ece8" font-weight="400">寬高與相對間距一起改變。</text><text x="22" y="869" font-size="10" fill="#8d9999" font-weight="400">超過尺寸、碰撞或畫布限制時不套用。</text><text x="22" y="898" font-size="9" fill="#687777" font-weight="400">ILLUSTRATED UI · NOT A LIVE CAPTURE</text></g><g transform="translate(1188,0)" font-family="Cascadia Mono, Microsoft JhengHei, sans-serif"><rect x="0" y="0" width="380" height="920" rx="0" fill="#0b0f12" stroke="none"/><rect x="0" y="0" width="380" height="3" rx="0" fill="#f4c76f" stroke="none"/><text x="22" y="33" font-size="11" fill="#8d9999" font-weight="400">CUEFOX QF / EDITOR</text><text x="331" y="35" font-size="20" fill="#f4c76f" font-weight="700">04</text><text x="22" y="77" font-size="25" fill="#e8ece8" font-weight="700">曲目展示</text><text x="22" y="102" font-size="12" fill="#8d9999" font-weight="400">Tracklist appearance</text><text x="22" y="133" font-size="10" fill="#f4c76f" font-weight="400">SIMULATED STATE · 模擬編輯狀態</text><rect x="22" y="153" width="336" height="230" rx="0" fill="#10171b" stroke="#39434a"/><path d="M38 173V360" stroke="#1d282d"/><path d="M62 173V360" stroke="#1d282d"/><path d="M86 173V360" stroke="#1d282d"/><path d="M110 173V360" stroke="#1d282d"/><path d="M134 173V360" stroke="#1d282d"/><path d="M158 173V360" stroke="#1d282d"/><path d="M182 173V360" stroke="#1d282d"/><path d="M206 173V360" stroke="#1d282d"/><path d="M230 173V360" stroke="#1d282d"/><path d="M254 173V360" stroke="#1d282d"/><path d="M278 173V360" stroke="#1d282d"/><path d="M302 173V360" stroke="#1d282d"/><path d="M326 173V360" stroke="#1d282d"/><path d="M350 173V360" stroke="#1d282d"/><path d="M30 179H350" stroke="#1d282d"/><path d="M30 203H350" stroke="#1d282d"/><path d="M30 227H350" stroke="#1d282d"/><path d="M30 251H350" stroke="#1d282d"/><path d="M30 275H350" stroke="#1d282d"/><path d="M30 299H350" stroke="#1d282d"/><path d="M30 323H350" stroke="#1d282d"/><path d="M30 347H350" stroke="#1d282d"/><text x="34" y="173" font-size="9" fill="#8d9999" font-weight="400">LIVE MONITOR / DEMO</text><rect x="43" y="192" width="294" height="167" rx="0" fill="#1a202c" stroke="#f4c76f"/><text x="56" y="213" font-size="11" fill="#f4c76f" font-weight="400">TRACKLIST · 04 TRACKS</text><rect x="49" y="227" width="282" height="29" rx="0" fill="#1a202c" stroke="none"/><text x="58" y="246" font-size="11" fill="#8d9999" font-weight="400">00:00</text><text x="109" y="246" font-size="12" fill="#e8ece8" font-weight="400">Dawn Signal</text><rect x="49" y="258" width="282" height="29" rx="0" fill="#34462a" stroke="none"/><text x="58" y="277" font-size="11" fill="#f4c76f" font-weight="400">04:32</text><text x="109" y="277" font-size="12" fill="#e8ece8" font-weight="400">Glass Horizon</text><rect x="49" y="289" width="282" height="29" rx="0" fill="#1a202c" stroke="none"/><text x="58" y="308" font-size="11" fill="#8d9999" font-weight="400">09:18</text><text x="109" y="308" font-size="12" fill="#e8ece8" font-weight="400">Night Current</text><rect x="49" y="320" width="282" height="29" rx="0" fill="#1a202c" stroke="none"/><text x="58" y="339" font-size="11" fill="#8d9999" font-weight="400">14:05</text><text x="109" y="339" font-size="12" fill="#e8ece8" font-weight="400">Afterglow</text><text x="22" y="415" font-size="12" fill="#f4c76f" font-weight="700">TRACKLIST PANEL</text><path d="M22 428H358" stroke="#39434a"/><text x="22" y="454" font-size="10" fill="#8d9999" font-weight="400">TEXT SIZE</text><rect x="22" y="462" width="336" height="29" rx="0" fill="#192126" stroke="#39434a"/><text x="33" y="482" font-size="12" fill="#e8ece8" font-weight="400">11 px</text><text x="22" y="505" font-size="10" fill="#8d9999" font-weight="400">TEXT ALIGN</text><rect x="22" y="513" width="336" height="29" rx="0" fill="#192126" stroke="#39434a"/><text x="33" y="533" font-size="12" fill="#e8ece8" font-weight="400">LEFT</text><text x="22" y="556" font-size="10" fill="#8d9999" font-weight="400">SURFACE OPACITY</text><rect x="22" y="564" width="336" height="29" rx="0" fill="#192126" stroke="#39434a"/><text x="33" y="584" font-size="12" fill="#e8ece8" font-weight="400">88%</text><text x="22" y="607" font-size="10" fill="#8d9999" font-weight="400">SHADOW</text><rect x="22" y="615" width="336" height="29" rx="0" fill="#192126" stroke="#39434a"/><text x="33" y="635" font-size="12" fill="#e8ece8" font-weight="400">ON</text><text x="22" y="658" font-size="10" fill="#8d9999" font-weight="400">ACCENT RAIL</text><rect x="22" y="666" width="336" height="29" rx="0" fill="#192126" stroke="#39434a"/><text x="33" y="686" font-size="12" fill="#e8ece8" font-weight="400">ON</text><text x="22" y="731" font-size="12" fill="#f4c76f" font-weight="400">✓ 獨立文字色彩</text><text x="22" y="755" font-size="12" fill="#f4c76f" font-weight="400">✓ 醒目標示目前曲目</text><path d="M22 792H358" stroke="#39434a"/><text x="22" y="843" font-size="13" fill="#e8ece8" font-weight="400">替長篇 Mix 保留可閱讀的曲目列表。</text><text x="22" y="869" font-size="10" fill="#8d9999" font-weight="400">此處曲名為示範資料，不是即時播放。</text><text x="22" y="898" font-size="9" fill="#687777" font-weight="400">ILLUSTRATED UI · NOT A LIVE CAPTURE</text></g><g transform="translate(1584,0)" font-family="Cascadia Mono, Microsoft JhengHei, sans-serif"><rect x="0" y="0" width="380" height="920" rx="0" fill="#0b0f12" stroke="none"/><rect x="0" y="0" width="380" height="3" rx="0" fill="#ff9b80" stroke="none"/><text x="22" y="33" font-size="11" fill="#8d9999" font-weight="400">CUEFOX QF / EDITOR</text><text x="331" y="35" font-size="20" fill="#ff9b80" font-weight="700">05</text><text x="22" y="77" font-size="25" fill="#e8ece8" font-weight="700">避讓與保存</text><text x="22" y="102" font-size="12" fill="#8d9999" font-weight="400">Placement and saving</text><text x="22" y="133" font-size="10" fill="#ff9b80" font-weight="400">SIMULATED STATE · 模擬編輯狀態</text><rect x="22" y="153" width="336" height="230" rx="0" fill="#10171b" stroke="#39434a"/><path d="M38 173V360" stroke="#1d282d"/><path d="M62 173V360" stroke="#1d282d"/><path d="M86 173V360" stroke="#1d282d"/><path d="M110 173V360" stroke="#1d282d"/><path d="M134 173V360" stroke="#1d282d"/><path d="M158 173V360" stroke="#1d282d"/><path d="M182 173V360" stroke="#1d282d"/><path d="M206 173V360" stroke="#1d282d"/><path d="M230 173V360" stroke="#1d282d"/><path d="M254 173V360" stroke="#1d282d"/><path d="M278 173V360" stroke="#1d282d"/><path d="M302 173V360" stroke="#1d282d"/><path d="M326 173V360" stroke="#1d282d"/><path d="M350 173V360" stroke="#1d282d"/><path d="M30 179H350" stroke="#1d282d"/><path d="M30 203H350" stroke="#1d282d"/><path d="M30 227H350" stroke="#1d282d"/><path d="M30 251H350" stroke="#1d282d"/><path d="M30 275H350" stroke="#1d282d"/><path d="M30 299H350" stroke="#1d282d"/><path d="M30 323H350" stroke="#1d282d"/><path d="M30 347H350" stroke="#1d282d"/><text x="34" y="173" font-size="9" fill="#8d9999" font-weight="400">LIVE MONITOR / DEMO</text><rect x="45" y="204" width="196" height="48" rx="0" fill="#1a202c" stroke="#ff9b80"/><text x="56" y="234" font-size="13" fill="#ff9b80" font-weight="400">TRACK TITLE</text><rect x="150" y="227" width="178" height="48" rx="0" fill="#2e1d20" stroke="#ff765f"/><text x="163" y="257" font-size="12" fill="#ff9b80" font-weight="400">OVERLAP</text><rect x="112" y="307" width="207" height="43" rx="0" fill="#1b2b23" stroke="#c5ee65"/><text x="128" y="334" font-size="11" fill="#c5ee65" font-weight="400">FREE SPACE FOUND</text><path d="M246 279v18l-5-5m5 5 5-5" stroke="#ff9b80" fill="none"/><text x="22" y="415" font-size="12" fill="#ff9b80" font-weight="700">LAYOUT STATE</text><path d="M22 428H358" stroke="#39434a"/><text x="22" y="454" font-size="10" fill="#8d9999" font-weight="400">PLACEMENT</text><rect x="22" y="462" width="336" height="29" rx="0" fill="#192126" stroke="#39434a"/><text x="33" y="482" font-size="12" fill="#e8ece8" font-weight="400">CHECK COLLISIONS</text><text x="22" y="505" font-size="10" fill="#8d9999" font-weight="400">NEW COMPONENT</text><rect x="22" y="513" width="336" height="29" rx="0" fill="#192126" stroke="#39434a"/><text x="33" y="533" font-size="12" fill="#e8ece8" font-weight="400">FIND FREE SPACE</text><text x="22" y="556" font-size="10" fill="#8d9999" font-weight="400">A / B / C</text><rect x="22" y="564" width="336" height="29" rx="0" fill="#192126" stroke="#39434a"/><text x="33" y="584" font-size="12" fill="#e8ece8" font-weight="400">SESSION SLOTS</text><text x="22" y="607" font-size="10" fill="#8d9999" font-weight="400">EDITOR CHANGES</text><rect x="22" y="615" width="336" height="29" rx="0" fill="#192126" stroke="#39434a"/><text x="33" y="635" font-size="12" fill="#e8ece8" font-weight="400">UNSAVED PREVIEW</text><text x="22" y="658" font-size="10" fill="#8d9999" font-weight="400">RUNTIME DRAG</text><rect x="22" y="666" width="336" height="29" rx="0" fill="#192126" stroke="#39434a"/><text x="33" y="686" font-size="12" fill="#e8ece8" font-weight="400">AUTO SAVE POSITION</text><text x="22" y="731" font-size="12" fill="#ff9b80" font-weight="400">✓ 無效縮放不套用</text><text x="22" y="755" font-size="12" fill="#ff9b80" font-weight="400">✓ 手動儲存並套用</text><rect x="22" y="779" width="336" height="34" rx="0" fill="#ff9b80" stroke="none"/><text x="68" y="802" font-size="12" fill="#0b0f12" font-weight="700">儲存並套用 / SAVE &amp; APPLY</text><text x="22" y="843" font-size="13" fill="#e8ece8" font-weight="400">先調整與預覽，再保存你的配置。</text><text x="22" y="869" font-size="10" fill="#8d9999" font-weight="400">編輯器不是自動儲存；暫存槽須按 SAVE。</text><text x="22" y="898" font-size="9" fill="#687777" font-weight="400">ILLUSTRATED UI · NOT A LIVE CAPTURE</text></g></svg>