<svg xmlns="http://www.w3.org/2000/svg" width="380" height="920" viewBox="0 0 380 920"><g font-family="Cascadia Mono, Microsoft JhengHei, sans-serif"><rect x="0" y="0" width="380" height="920" rx="0" fill="#0b0f12" stroke="none"/><rect x="0" y="0" width="380" height="3" rx="0" fill="#bda8fb" stroke="none"/><text x="22" y="33" font-size="11" fill="#8d9999" font-weight="400">CUEFOX QF / EDITOR</text><text x="331" y="35" font-size="20" fill="#bda8fb" font-weight="700">02</text><text x="22" y="77" font-size="25" fill="#e8ece8" font-weight="700">圖層與前後關係</text><text x="22" y="102" font-size="12" fill="#8d9999" font-weight="400">Layer order</text><text x="22" y="133" font-size="10" fill="#bda8fb" font-weight="400">SIMULATED STATE · 模擬編輯狀態</text><rect x="22" y="153" width="336" height="230" rx="0" fill="#10171b" stroke="#39434a"/><path d="M38 173V360" stroke="#1d282d"/><path d="M62 173V360" stroke="#1d282d"/><path d="M86 173V360" stroke="#1d282d"/><path d="M110 173V360" stroke="#1d282d"/><path d="M134 173V360" stroke="#1d282d"/><path d="M158 173V360" stroke="#1d282d"/><path d="M182 173V360" stroke="#1d282d"/><path d="M206 173V360" stroke="#1d282d"/><path d="M230 173V360" stroke="#1d282d"/><path d="M254 173V360" stroke="#1d282d"/><path d="M278 173V360" stroke="#1d282d"/><path d="M302 173V360" stroke="#1d282d"/><path d="M326 173V360" stroke="#1d282d"/><path d="M350 173V360" stroke="#1d282d"/><path d="M30 179H350" stroke="#1d282d"/><path d="M30 203H350" stroke="#1d282d"/><path d="M30 227H350" stroke="#1d282d"/><path d="M30 251H350" stroke="#1d282d"/><path d="M30 275H350" stroke="#1d282d"/><path d="M30 299H350" stroke="#1d282d"/><path d="M30 323H350" stroke="#1d282d"/><path d="M30 347H350" stroke="#1d282d"/><text x="34" y="173" font-size="9" fill="#8d9999" font-weight="400">LIVE MONITOR / DEMO</text><rect x="67" y="269" width="218" height="61" rx="0" fill="#263139" stroke="#8d9999"/><text x="81" y="306" font-size="12" fill="#cbd3d5" font-weight="400">04:32 / 58:20     Z 1</text><rect x="99" y="237" width="233" height="57" rx="0" fill="#1a202c" stroke="#bda8fb"/><text x="110" y="260" font-size="15" fill="#bda8fb" font-weight="700">GLASS HORIZON</text><text x="110" y="280" font-size="10" fill="#8d9999" font-weight="400">TRACK TITLE · Z 2</text><text x="22" y="415" font-size="12" fill="#bda8fb" font-weight="700">Z AXIS</text><path d="M22 428H358" stroke="#39434a"/><text x="22" y="454" font-size="10" fill="#8d9999" font-weight="400">ENABLE Z AXIS</text><rect x="22" y="462" width="336" height="29" rx="0" fill="#192126" stroke="#39434a"/><text x="33" y="482" font-size="12" fill="#e8ece8" font-weight="400">ON</text><text x="22" y="505" font-size="10" fill="#8d9999" font-weight="400">TRACK TITLE</text><rect x="22" y="513" width="336" height="29" rx="0" fill="#192126" stroke="#39434a"/><text x="33" y="533" font-size="12" fill="#e8ece8" font-weight="400">Z = 2</text><text x="22" y="556" font-size="10" fill="#8d9999" font-weight="400">TIME READOUT</text><rect x="22" y="564" width="336" height="29" rx="0" fill="#192126" stroke="#39434a"/><text x="33" y="584" font-size="12" fill="#e8ece8" font-weight="400">Z = 1</text><text x="22" y="607" font-size="10" fill="#8d9999" font-weight="400">PANEL BASE</text><rect x="22" y="615" width="336" height="29" rx="0" fill="#192126" stroke="#39434a"/><text x="33" y="635" font-size="12" fill="#e8ece8" font-weight="400">AUTO</text><text x="22" y="658" font-size="10" fill="#8d9999" font-weight="400">ALLOWED RANGE</text><rect x="22" y="666" width="336" height="29" rx="0" fill="#192126" stroke="#39434a"/><text x="33" y="686" font-size="12" fill="#e8ece8" font-weight="400">−99 … 99</text><text x="22" y="731" font-size="12" fill="#bda8fb" font-weight="400">✓ 保留元件位置</text><text x="22" y="755" font-size="12" fill="#bda8fb" font-weight="400">✓ 變更覆蓋順序</text><path d="M22 792H358" stroke="#39434a"/><text x="22" y="843" font-size="13" fill="#e8ece8" font-weight="400">讓標題置前，讓時間資訊留在後層。</text><text x="22" y="869" font-size="10" fill="#8d9999" font-weight="400">底座依內容包覆，並維持在元件下方。</text><text x="22" y="898" font-size="9" fill="#687777" font-weight="400">ILLUSTRATED UI · NOT A LIVE CAPTURE</text></g></svg>