<svg xmlns="http://www.w3.org/2000/svg" width="380" height="920" viewBox="0 0 380 920"><g font-family="Cascadia Mono, Microsoft JhengHei, sans-serif"><rect x="0" y="0" width="380" height="920" rx="0" fill="#0b0f12" stroke="none"/><rect x="0" y="0" width="380" height="3" rx="0" fill="#c5ee65" stroke="none"/><text x="22" y="33" font-size="11" fill="#8d9999" font-weight="400">CUEFOX QF / EDITOR</text><text x="331" y="35" font-size="20" fill="#c5ee65" font-weight="700">01</text><text x="22" y="77" font-size="25" fill="#e8ece8" font-weight="700">元件參數</text><text x="22" y="102" font-size="12" fill="#8d9999" font-weight="400">Component properties</text><text x="22" y="133" font-size="10" fill="#c5ee65" font-weight="400">SIMULATED STATE · 模擬編輯狀態</text><rect x="22" y="153" width="336" height="230" rx="0" fill="#10171b" stroke="#39434a"/><path d="M38 173V360" stroke="#1d282d"/><path d="M62 173V360" stroke="#1d282d"/><path d="M86 173V360" stroke="#1d282d"/><path d="M110 173V360" stroke="#1d282d"/><path d="M134 173V360" stroke="#1d282d"/><path d="M158 173V360" stroke="#1d282d"/><path d="M182 173V360" stroke="#1d282d"/><path d="M206 173V360" stroke="#1d282d"/><path d="M230 173V360" stroke="#1d282d"/><path d="M254 173V360" stroke="#1d282d"/><path d="M278 173V360" stroke="#1d282d"/><path d="M302 173V360" stroke="#1d282d"/><path d="M326 173V360" stroke="#1d282d"/><path d="M350 173V360" stroke="#1d282d"/><path d="M30 179H350" stroke="#1d282d"/><path d="M30 203H350" stroke="#1d282d"/><path d="M30 227H350" stroke="#1d282d"/><path d="M30 251H350" stroke="#1d282d"/><path d="M30 275H350" stroke="#1d282d"/><path d="M30 299H350" stroke="#1d282d"/><path d="M30 323H350" stroke="#1d282d"/><path d="M30 347H350" stroke="#1d282d"/><text x="34" y="173" font-size="9" fill="#8d9999" font-weight="400">LIVE MONITOR / DEMO</text><rect x="43" y="233" width="295" height="97" rx="0" fill="#1a202c" stroke="#39434a"/><circle cx="79" cy="280" r="25" fill="#11171c" stroke="#c5ee65" stroke-width="2"/><circle cx="79" cy="280" r="8" fill="#39434a"/><text x="115" y="258" font-size="14" fill="#c5ee65" font-weight="700">GLASS HORIZON</text><text x="115" y="278" font-size="11" fill="#8d9999" font-weight="400">04:32 / 58:20</text><text x="115" y="307" font-size="11" fill="#e8ece8" font-weight="400">YT   ◀   ▶   LIST</text><rect x="109" y="239" width="222" height="31" rx="0" fill="none" stroke="#c5ee65"/><rect x="107" y="237" width="5" height="5" rx="0" fill="#c5ee65" stroke="none"/><rect x="107" y="268" width="5" height="5" rx="0" fill="#c5ee65" stroke="none"/><rect x="329" y="237" width="5" height="5" rx="0" fill="#c5ee65" stroke="none"/><rect x="329" y="268" width="5" height="5" rx="0" fill="#c5ee65" stroke="none"/><text x="22" y="415" font-size="12" fill="#c5ee65" font-weight="700">TRACK TITLE</text><path d="M22 428H358" stroke="#39434a"/><text x="22" y="454" font-size="10" fill="#8d9999" font-weight="400">BACKGROUND</text><rect x="22" y="462" width="336" height="29" rx="0" fill="#192126" stroke="#39434a"/><text x="33" y="482" font-size="12" fill="#e8ece8" font-weight="400">#1A202C</text><text x="22" y="505" font-size="10" fill="#8d9999" font-weight="400">OPACITY</text><rect x="22" y="513" width="336" height="29" rx="0" fill="#192126" stroke="#39434a"/><text x="33" y="533" font-size="12" fill="#e8ece8" font-weight="400">85%</text><text x="22" y="556" font-size="10" fill="#8d9999" font-weight="400">SIZE</text><rect x="22" y="564" width="336" height="29" rx="0" fill="#192126" stroke="#39434a"/><text x="33" y="584" font-size="12" fill="#e8ece8" font-weight="400">33.75%</text><text x="22" y="607" font-size="10" fill="#8d9999" font-weight="400">TEXT SIZE</text><rect x="22" y="615" width="336" height="29" rx="0" fill="#192126" stroke="#39434a"/><text x="33" y="635" font-size="12" fill="#e8ece8" font-weight="400">18 px</text><text x="22" y="658" font-size="10" fill="#8d9999" font-weight="400">CORNER LEVEL</text><rect x="22" y="666" width="336" height="29" rx="0" fill="#192126" stroke="#39434a"/><text x="33" y="686" font-size="12" fill="#e8ece8" font-weight="400">4 / 10</text><text x="22" y="731" font-size="12" fill="#c5ee65" font-weight="400">✓ 邊框 ON</text><text x="22" y="755" font-size="12" fill="#c5ee65" font-weight="400">✓ 圓角 ON</text><text x="22" y="779" font-size="12" fill="#c5ee65" font-weight="400">✓ 背景模糊 OFF</text><path d="M22 792H358" stroke="#39434a"/><text x="22" y="843" font-size="13" fill="#e8ece8" font-weight="400">同一元件，分開調整表面與文字。</text><text x="22" y="869" font-size="10" fill="#8d9999" font-weight="400">表面不透明度與文字不透明度可獨立設定。</text><text x="22" y="898" font-size="9" fill="#687777" font-weight="400">ILLUSTRATED UI · NOT A LIVE CAPTURE</text></g></svg>