<svg xmlns="http://www.w3.org/2000/svg" width="380" height="920" viewBox="0 0 380 920"><g font-family="Cascadia Mono, Microsoft JhengHei, sans-serif"><rect x="0" y="0" width="380" height="920" rx="0" fill="#0b0f12" stroke="none"/><rect x="0" y="0" width="380" height="3" rx="0" fill="#69cde5" stroke="none"/><text x="22" y="33" font-size="11" fill="#8d9999" font-weight="400">CUEFOX QF / EDITOR</text><text x="331" y="35" font-size="20" fill="#69cde5" font-weight="700">03</text><text x="22" y="77" font-size="25" fill="#e8ece8" font-weight="700">等比例打包縮放</text><text x="22" y="102" font-size="12" fill="#8d9999" font-weight="400">Proportional scaling</text><text x="22" y="133" font-size="10" fill="#69cde5" font-weight="400">SIMULATED STATE · 模擬編輯狀態</text><rect x="22" y="153" width="336" height="230" rx="0" fill="#10171b" stroke="#39434a"/><path d="M38 173V360" stroke="#1d282d"/><path d="M62 173V360" stroke="#1d282d"/><path d="M86 173V360" stroke="#1d282d"/><path d="M110 173V360" stroke="#1d282d"/><path d="M134 173V360" stroke="#1d282d"/><path d="M158 173V360" stroke="#1d282d"/><path d="M182 173V360" stroke="#1d282d"/><path d="M206 173V360" stroke="#1d282d"/><path d="M230 173V360" stroke="#1d282d"/><path d="M254 173V360" stroke="#1d282d"/><path d="M278 173V360" stroke="#1d282d"/><path d="M302 173V360" stroke="#1d282d"/><path d="M326 173V360" stroke="#1d282d"/><path d="M350 173V360" stroke="#1d282d"/><path d="M30 179H350" stroke="#1d282d"/><path d="M30 203H350" stroke="#1d282d"/><path d="M30 227H350" stroke="#1d282d"/><path d="M30 251H350" stroke="#1d282d"/><path d="M30 275H350" stroke="#1d282d"/><path d="M30 299H350" stroke="#1d282d"/><path d="M30 323H350" stroke="#1d282d"/><path d="M30 347H350" stroke="#1d282d"/><text x="34" y="173" font-size="9" fill="#8d9999" font-weight="400">LIVE MONITOR / DEMO</text><rect x="43" y="233" width="295" height="97" rx="0" fill="#1a202c" stroke="#39434a"/><circle cx="79" cy="280" r="25" fill="#11171c" stroke="#69cde5" stroke-width="2"/><circle cx="79" cy="280" r="8" fill="#39434a"/><text x="115" y="258" font-size="14" fill="#69cde5" font-weight="700">GLASS HORIZON</text><text x="115" y="278" font-size="11" fill="#8d9999" font-weight="400">04:32 / 58:20</text><text x="115" y="307" font-size="11" fill="#e8ece8" font-weight="400">YT   ◀   ▶   LIST</text><rect x="34" y="220" width="311" height="121" fill="none" stroke="#69cde5" stroke-dasharray="5 4"/><text x="240" y="211" font-size="12" fill="#69cde5" font-weight="400">× 1.10</text><text x="22" y="415" font-size="12" fill="#69cde5" font-weight="700">SCALE GROUP</text><path d="M22 428H358" stroke="#39434a"/><text x="22" y="454" font-size="10" fill="#8d9999" font-weight="400">CANVAS</text><rect x="22" y="462" width="336" height="29" rx="0" fill="#192126" stroke="#39434a"/><text x="33" y="482" font-size="12" fill="#e8ece8" font-weight="400">1280 × 720</text><text x="22" y="505" font-size="10" fill="#8d9999" font-weight="400">SIZE MODE</text><rect x="22" y="513" width="336" height="29" rx="0" fill="#192126" stroke="#39434a"/><text x="33" y="533" font-size="12" fill="#e8ece8" font-weight="400">REL · %</text><text x="22" y="556" font-size="10" fill="#8d9999" font-weight="400">SCOPE</text><rect x="22" y="564" width="336" height="29" rx="0" fill="#192126" stroke="#39434a"/><text x="33" y="584" font-size="12" fill="#e8ece8" font-weight="400">ALL</text><text x="22" y="607" font-size="10" fill="#8d9999" font-weight="400">SCALE</text><rect x="22" y="615" width="336" height="29" rx="0" fill="#192126" stroke="#39434a"/><text x="33" y="635" font-size="12" fill="#e8ece8" font-weight="400">110%</text><text x="22" y="658" font-size="10" fill="#8d9999" font-weight="400">AUTO ALIGN</text><rect x="22" y="666" width="336" height="29" rx="0" fill="#192126" stroke="#39434a"/><text x="33" y="686" font-size="12" fill="#e8ece8" font-weight="400">OFF AFTER SCALE</text><text x="22" y="731" font-size="12" fill="#69cde5" font-weight="400">✓ 共同中心縮放</text><text x="22" y="755" font-size="12" fill="#69cde5" font-weight="400">✓ 分離控制鈕一起調整</text><rect x="22" y="779" width="336" height="34" rx="0" fill="#69cde5" stroke="none"/><text x="83" y="802" font-size="13" fill="#0b0f12" font-weight="700">打包縮放 / SCALE %</text><text x="22" y="843" font-size="13" fill="#e8ece8" font-weight="400">寬高與相對間距一起改變。</text><text x="22" y="869" font-size="10" fill="#8d9999" font-weight="400">超過尺寸、碰撞或畫布限制時不套用。</text><text x="22" y="898" font-size="9" fill="#687777" font-weight="400">ILLUSTRATED UI · NOT A LIVE CAPTURE</text></g></svg>